# xmcd
#
# Track frame offsets: 
#        150
#        17207
#        32179
#        50706
#        67396
#        86186
#        100033
#        119310
#        137410
#        155232
#
# Disc length: 2224 seconds
#
# Revision: 0
# Processed by: cddbd v1.5.2PL0 Copyright (c) Steve Scherf et al.
# Submitted via: ExactAudioCopy v1.0b4
#
DISCID=9108ae0a
DTITLE=JW Jones - Seventh Hour
DYEAR=2012
DGENRE=Blues, Jump Blues
TTITLE0=Ain't Gonna Beg
TTITLE1=Let It Go
TTITLE2=In A Song
TTITLE3=You Got Caught
TTITLE4=All Over Again
TTITLE5=Hearbreaker
TTITLE6=Do For You
TTITLE7=I'm Tryin'
TTITLE8=What Is Real
TTITLE9=So Long I'm Gone
EXTD=
EXTT0=
EXTT1=
EXTT2=
EXTT3=
EXTT4=
EXTT5=
EXTT6=
EXTT7=
EXTT8=
EXTT9=
PLAYORDER=
